# xmcd CD database file
#
# Track frame offsets:
#	150
#	14181
#	34395
#	51128
#	68177
#	88763
#	109526
#	129195
#	152369
#	165153
#	190971
#	222272
#	239616
#	261492
#	272726
#	285847
#	298992
#
# Disc length: 4113 seconds
#
# Revision: 0
# Processed by: cddbd v1.5.2PL0 Copyright (c) Steve Scherf et al.
# Submitted via: CDex 1.70beta2
#
DISCID=fa100f11
DTITLE=Diana Krall - Glad Rag Doll
DYEAR=2012
DGENRE=Jazz
TTITLE0=We justcouldn't say goodbye
TTITLE1=There ain't no sweet manthat's worth the salt of my tears
TTITLE2=Just like a butterfly that's caught in the rain
TTITLE3=You know- i know ev'rything's made for love
TTITLE4=Glad rag doll
TTITLE5=I'm a little mixed up
TTITLE6=Prairie lullababy
TTITLE7=Here lies love
TTITLE8=Iused to love you but it's allover now
TTITLE9=Let it rain
TTITLE10=Lonely avenue
TTITLE11=Wide river to cross
TTITLE12=When the curtain comes down
TTITLE13=As a long as I love
TTITLE14=Glad rag doll (alternate version )
TTITLE15=Garden in therain
TTITLE16=There ain't no sweet man that's worth the salt of mytears
EXTD=YEAR: 2012
EXTT0=
EXTT1=
EXTT2=
EXTT3=
EXTT4=
EXTT5=
EXTT6=
EXTT7=
EXTT8=
EXTT9=
EXTT10=
EXTT11=
EXTT12=
EXTT13=
EXTT14=
EXTT15=
EXTT16=
PLAYORDER=
